<?xml version="1.0" encoding="utf-8"?>
<!-- Generator: Adobe Illustrator 23.1.0, SVG Export Plug-In . SVG Version: 6.00 Build 0)  -->
<svg version="1.1" id="Слой_1" xmlns="http://www.w3.org/2000/svg" xmlns:xlink="http://www.w3.org/1999/xlink" x="0px" y="0px"
	 viewBox="0 0 1000 290" style="enable-background:new 0 0 1000 290;" xml:space="preserve">
<g>
	<text transform="matrix(1 0 0 1 -882.668 -121.208)" style="font-family:'MyriadPro-Regular'; font-size:209.6832px;">SexShop</text>
	<text transform="matrix(1 0 0 1 -586.0752 -44.4414)" style="font-family:'MyriadPro-Regular'; font-size:89.7663px;">Portal</text>
</g>
<g>
	<g>
		<path d="M139.1,132.7c0,8.4-2.2,16-6.5,22.8c-4.3,6.7-10.7,12-19.1,15.8c-8.4,3.8-18.3,5.7-29.8,5.7c-13.8,0-25.1-2.6-34.1-7.8
			c-6.4-3.7-11.5-8.7-15.5-15s-6-12.3-6-18.2c0-3.4,1.2-6.4,3.6-8.8c2.4-2.4,5.4-3.7,9.1-3.7c3,0,5.5,1,7.6,2.9
			c2.1,1.9,3.8,4.7,5.3,8.5c1.8,4.4,3.7,8.2,5.8,11.1c2.1,3,5,5.4,8.7,7.4c3.7,1.9,8.7,2.9,14.8,2.9c8.4,0,15.2-2,20.4-5.9
			c5.2-3.9,7.9-8.8,7.9-14.6c0-4.6-1.4-8.4-4.2-11.3c-2.8-2.9-6.5-5.1-11-6.6c-4.5-1.5-10.5-3.1-18-4.9c-10-2.3-18.4-5.1-25.2-8.2
			c-6.8-3.1-12.1-7.4-16.1-12.9c-4-5.4-6-12.2-6-20.2c0-7.7,2.1-14.5,6.3-20.5c4.2-6,10.3-10.6,18.2-13.8c7.9-3.2,17.3-4.8,28-4.8
			c8.6,0,16,1.1,22.2,3.2c6.3,2.1,11.4,5,15.6,8.5c4.1,3.5,7.1,7.2,9,11.1c1.9,3.9,2.9,7.7,2.9,11.3c0,3.4-1.2,6.4-3.6,9.1
			c-2.4,2.7-5.4,4-8.9,4c-3.2,0-5.7-0.8-7.4-2.4c-1.7-1.6-3.5-4.3-5.5-8c-2.5-5.3-5.6-9.4-9.1-12.3c-3.6-3-9.3-4.4-17.1-4.4
			c-7.3,0-13.2,1.6-17.7,4.8S57,64.5,57,69c0,2.8,0.8,5.2,2.3,7.2c1.5,2,3.6,3.8,6.3,5.2c2.7,1.5,5.4,2.6,8.1,3.4
			c2.7,0.8,7.2,2,13.5,3.6c7.9,1.8,15,3.9,21.4,6.1c6.4,2.2,11.8,4.9,16.3,8.1c4.5,3.2,8,7.2,10.5,12
			C137.8,119.7,139.1,125.6,139.1,132.7z"/>
		<path d="M255.1,56.8h-63.7V91h58.7c4.3,0,7.5,1,9.7,2.9c2.1,1.9,3.2,4.5,3.2,7.7c0,3.2-1,5.8-3.1,7.8c-2.1,2-5.3,3-9.7,3h-58.7
			v39.7h65.9c4.4,0,7.8,1,10,3.1c2.3,2.1,3.4,4.8,3.4,8.2c0,3.3-1.1,6-3.4,8c-2.3,2.1-5.6,3.1-10,3.1h-76.9
			c-6.2,0-10.6-1.4-13.3-4.1c-2.7-2.7-4-7.1-4-13.2v-105c0-4.1,0.6-7.4,1.8-10c1.2-2.6,3.1-4.4,5.7-5.6c2.6-1.2,5.9-1.8,9.9-1.8
			h74.7c4.5,0,7.9,1,10,3s3.3,4.6,3.3,7.9c0,3.3-1.1,6-3.3,8C263,55.8,259.6,56.8,255.1,56.8z"/>
		<path d="M288.1,147.4l31.2-45.6L293,61.2c-2.5-3.9-4.3-7.3-5.6-10.1s-1.9-5.5-1.9-8.1c0-2.7,1.2-5.1,3.6-7.2
			c2.4-2.1,5.3-3.2,8.7-3.2c3.9,0,7,1.2,9.2,3.5c2.2,2.3,5.2,6.6,9.1,12.9l21,33.9l22.4-33.9c1.8-2.9,3.4-5.3,4.7-7.3
			c1.3-2,2.6-3.7,3.8-5c1.2-1.3,2.6-2.3,4-3c1.5-0.7,3.2-1,5.2-1c3.6,0,6.5,1.1,8.7,3.2c2.3,2.1,3.4,4.7,3.4,7.6
			c0,4.3-2.4,10-7.3,17.3l-27.5,41.1l29.6,45.6c2.7,4,4.6,7.3,5.8,10c1.2,2.6,1.8,5.1,1.8,7.5c0,2.2-0.5,4.3-1.6,6.1
			c-1.1,1.8-2.6,3.3-4.6,4.4c-2,1.1-4.2,1.6-6.7,1.6c-2.7,0-4.9-0.6-6.8-1.7c-1.8-1.1-3.3-2.5-4.5-4.1c-1.1-1.7-3.3-4.9-6.4-9.6
			l-24.6-38.7l-26.1,39.8c-2,3.2-3.5,5.4-4.3,6.7c-0.9,1.3-1.9,2.5-3.1,3.7c-1.2,1.2-2.6,2.2-4.3,2.9c-1.7,0.7-3.6,1-5.8,1
			c-3.4,0-6.3-1-8.5-3.1c-2.3-2.1-3.4-5.1-3.4-9.1C281.1,160,283.4,154.2,288.1,147.4z"/>
		<path d="M517.1,132.7c0,8.4-2.2,16-6.5,22.8c-4.3,6.7-10.7,12-19.1,15.8c-8.4,3.8-18.3,5.7-29.8,5.7c-13.8,0-25.1-2.6-34.1-7.8
			c-6.4-3.7-11.5-8.7-15.5-15c-4-6.3-6-12.3-6-18.2c0-3.4,1.2-6.4,3.6-8.8c2.4-2.4,5.4-3.7,9.1-3.7c3,0,5.5,1,7.6,2.9
			c2.1,1.9,3.8,4.7,5.3,8.5c1.8,4.4,3.7,8.2,5.8,11.1c2.1,3,5,5.4,8.7,7.4c3.7,1.9,8.7,2.9,14.8,2.9c8.4,0,15.2-2,20.4-5.9
			c5.2-3.9,7.9-8.8,7.9-14.6c0-4.6-1.4-8.4-4.2-11.3c-2.8-2.9-6.5-5.1-11-6.6c-4.5-1.5-10.5-3.1-18-4.9c-10-2.3-18.4-5.1-25.2-8.2
			c-6.8-3.1-12.1-7.4-16.1-12.9c-4-5.4-6-12.2-6-20.2c0-7.7,2.1-14.5,6.3-20.5c4.2-6,10.3-10.6,18.2-13.8c7.9-3.2,17.3-4.8,28-4.8
			c8.6,0,16,1.1,22.2,3.2c6.3,2.1,11.4,5,15.6,8.5c4.1,3.5,7.1,7.2,9,11.1c1.9,3.9,2.9,7.7,2.9,11.3c0,3.4-1.2,6.4-3.6,9.1
			c-2.4,2.7-5.4,4-8.9,4c-3.2,0-5.7-0.8-7.4-2.4c-1.7-1.6-3.5-4.3-5.5-8c-2.5-5.3-5.6-9.4-9.1-12.3c-3.6-3-9.3-4.4-17.1-4.4
			c-7.3,0-13.2,1.6-17.7,4.8c-4.5,3.2-6.7,7.1-6.7,11.6c0,2.8,0.8,5.2,2.3,7.2c1.5,2,3.6,3.8,6.3,5.2c2.7,1.5,5.4,2.6,8.1,3.4
			c2.7,0.8,7.2,2,13.5,3.6c7.9,1.8,15,3.9,21.4,6.1c6.4,2.2,11.8,4.9,16.3,8.1c4.5,3.2,8,7.2,10.5,12
			C515.9,119.7,517.1,125.6,517.1,132.7z"/>
		<path d="M569.6,49.7v40h61.1v-40c0-5.7,1.3-10,3.9-12.9c2.6-2.9,6-4.3,10.1-4.3c4.3,0,7.7,1.4,10.3,4.2c2.6,2.8,4,7.1,4,12.9v110
			c0,5.8-1.3,10.1-4,13c-2.7,2.9-6.1,4.3-10.3,4.3c-4.3,0-7.7-1.4-10.2-4.3c-2.5-2.9-3.8-7.2-3.8-12.9v-47h-61.1v47
			c0,5.8-1.3,10.1-4,13c-2.7,2.9-6.1,4.3-10.3,4.3c-4.3,0-7.7-1.4-10.2-4.3c-2.5-2.9-3.8-7.2-3.8-12.9v-110c0-5.7,1.3-10,3.8-12.9
			c2.5-2.9,5.9-4.3,10.2-4.3c4.3,0,7.7,1.4,10.3,4.2C568.3,39.6,569.6,43.9,569.6,49.7z"/>
		<path d="M750.8,32.6c14.5,0,26.9,2.9,37.3,8.8c10.4,5.9,18.2,14.2,23.6,25c5.3,10.8,8,23.5,8,38.1c0,10.8-1.5,20.6-4.4,29.4
			c-2.9,8.8-7.3,16.5-13.1,23c-5.8,6.5-13,11.4-21.5,14.9c-8.5,3.4-18.3,5.1-29.2,5.1c-10.9,0-20.7-1.8-29.3-5.3
			c-8.6-3.5-15.8-8.5-21.6-14.9c-5.8-6.4-10.1-14.1-13.1-23.1c-3-9-4.4-18.8-4.4-29.2c0-10.7,1.5-20.6,4.6-29.5
			c3.1-9,7.5-16.6,13.4-22.9c5.8-6.3,13-11.1,21.3-14.4C730.6,34.2,740.1,32.6,750.8,32.6z M791,104.4c0-10.2-1.7-19.1-5-26.6
			c-3.3-7.5-8-13.2-14.1-17c-6.1-3.8-13.2-5.8-21.1-5.8c-5.7,0-10.9,1.1-15.7,3.2c-4.8,2.1-8.9,5.2-12.4,9.3
			c-3.5,4.1-6.2,9.3-8.2,15.6c-2,6.3-3,13.4-3,21.3c0,7.9,1,15.1,3,21.5c2,6.4,4.8,11.7,8.5,16c3.7,4.2,7.8,7.4,12.6,9.5
			c4.7,2.1,9.9,3.1,15.6,3.1c7.2,0,13.9-1.8,20-5.4c6.1-3.6,10.9-9.2,14.5-16.8C789.2,124.7,791,115.4,791,104.4z"/>
		<path d="M900.5,137.1v-19.7H861c-5.7,0-9.9-1-12.9-3c-2.9-2-4.4-4.6-4.4-7.7c0-3.2,1.4-5.9,4.3-7.8c2.9-2,7.1-3,12.7-3h107.6
			c6.2,0,10.7,1.1,13.3,3.3c2.7,2.2,4,5.6,4,10.4v27.6c0,8.2-0.8,14.5-2.5,18.9c-1.6,4.4-4.2,8.1-7.9,11.3
			c-3.7,3.2-8.2,5.6-13.5,7.2c-5.3,1.6-11.3,2.5-18,2.5c-14.2,0-25-3.3-32.3-10C904.2,160.2,900.5,150.3,900.5,137.1z M964.5,131.8
			v-14.5h-42.7v14.5c0,5.1,0.7,9.3,2.1,12.7c1.4,3.4,3.7,6,6.9,7.8c3.2,1.8,7.3,2.7,12.5,2.7c6.2,0,11.2-1.4,15-4.1
			C962.5,147.8,964.5,141.5,964.5,131.8z"/>
		<circle cx="871.2" cy="55" r="23"/>
		<circle cx="959.8" cy="55" r="23"/>
	</g>
	<g>
		<path d="M388.7,228.5h-13.2v20.1c0,2.9-0.7,5-2,6.5c-1.4,1.5-3.1,2.2-5.1,2.2c-2.2,0-3.9-0.7-5.2-2.2c-1.3-1.5-2-3.6-2-6.5V194
			c0-3.2,0.7-5.4,2.2-6.8s3.8-2,6.9-2h18.4c5.5,0,9.6,0.4,12.6,1.3c2.9,0.8,5.4,2.1,7.5,4c2.1,1.9,3.7,4.2,4.8,6.9
			c1.1,2.7,1.6,5.8,1.6,9.1c0,7.2-2.2,12.7-6.7,16.4C404.1,226.6,397.5,228.5,388.7,228.5z M385.2,195.9h-9.7v21.7h9.7
			c3.4,0,6.2-0.4,8.5-1.1c2.3-0.7,4-1.9,5.2-3.5c1.2-1.6,1.8-3.7,1.8-6.3c0-3.1-0.9-5.7-2.8-7.6C395.9,197,391.6,195.9,385.2,195.9z
			"/>
		<path d="M472,230.4c0,3.9-0.6,7.6-1.8,10.9c-1.2,3.3-3,6.2-5.3,8.6c-2.3,2.4-5.1,4.2-8.3,5.5c-3.2,1.3-6.9,1.9-10.9,1.9
			c-4,0-7.6-0.6-10.8-1.9c-3.2-1.3-6-3.1-8.3-5.5c-2.3-2.4-4.1-5.2-5.3-8.5c-1.2-3.3-1.8-6.9-1.8-10.9c0-4,0.6-7.7,1.8-11
			c1.2-3.3,3-6.2,5.3-8.5c2.3-2.4,5.1-4.2,8.3-5.4c3.3-1.3,6.9-1.9,10.8-1.9c4,0,7.6,0.6,10.9,1.9c3.3,1.3,6,3.1,8.4,5.5
			c2.3,2.4,4.1,5.2,5.3,8.5C471.4,222.8,472,226.5,472,230.4z M458.7,230.4c0-5.4-1.2-9.6-3.6-12.6s-5.6-4.5-9.6-4.5
			c-2.6,0-4.9,0.7-6.8,2c-2,1.3-3.5,3.3-4.5,5.9s-1.6,5.7-1.6,9.1c0,3.5,0.5,6.5,1.6,9c1,2.6,2.5,4.6,4.5,5.9c2,1.4,4.3,2.1,6.9,2.1
			c4,0,7.2-1.5,9.6-4.5C457.6,239.9,458.7,235.8,458.7,230.4z"/>
		<path d="M495.5,238.2v11c0,2.7-0.6,4.7-1.9,6c-1.3,1.3-2.9,2-4.8,2c-1.9,0-3.5-0.7-4.7-2c-1.2-1.4-1.8-3.4-1.8-6v-36.8
			c0-5.9,2.1-8.9,6.4-8.9c2.2,0,3.8,0.7,4.7,2.1c1,1.4,1.5,3.4,1.6,6.1c1.6-2.7,3.2-4.8,4.9-6.1c1.7-1.4,3.9-2.1,6.7-2.1
			c2.8,0,5.5,0.7,8.1,2.1c2.6,1.4,3.9,3.2,3.9,5.5c0,1.6-0.6,2.9-1.7,4c-1.1,1-2.3,1.6-3.6,1.6c-0.5,0-1.7-0.3-3.5-0.9
			c-1.9-0.6-3.5-0.9-4.9-0.9c-1.9,0-3.5,0.5-4.7,1.5c-1.2,1-2.2,2.5-2.9,4.5s-1.1,4.4-1.4,7.1C495.7,230.9,495.5,234.3,495.5,238.2z
			"/>
		<path d="M527.8,204.7h1.5v-7.9c0-2.1,0.1-3.8,0.2-5c0.1-1.2,0.4-2.3,0.9-3.1c0.5-0.9,1.3-1.6,2.2-2.2c1-0.6,2-0.8,3.2-0.8
			c1.7,0,3.2,0.6,4.5,1.9c0.9,0.8,1.5,1.9,1.7,3.1c0.2,1.2,0.4,2.9,0.4,5.2v9h4.8c1.9,0,3.3,0.4,4.3,1.3c1,0.9,1.5,2,1.5,3.4
			c0,1.8-0.7,3-2.1,3.7c-1.4,0.7-3.4,1.1-6,1.1h-2.5v24.3c0,2.1,0.1,3.7,0.2,4.8c0.1,1.1,0.5,2,1.2,2.7c0.6,0.7,1.7,1,3.1,1
			c0.8,0,1.8-0.1,3.1-0.4c1.3-0.3,2.4-0.4,3.1-0.4c1.1,0,2,0.4,2.9,1.3c0.9,0.9,1.3,1.9,1.3,3.2c0,2.1-1.2,3.8-3.5,4.9
			s-5.7,1.7-10,1.7c-4.1,0-7.3-0.7-9.4-2.1c-2.1-1.4-3.5-3.3-4.2-5.8c-0.7-2.5-1-5.7-1-9.8v-25.4h-1.7c-1.9,0-3.4-0.5-4.4-1.4
			c-1-0.9-1.5-2-1.5-3.4c0-1.4,0.5-2.5,1.6-3.4C524.2,205.2,525.8,204.7,527.8,204.7z"/>
		<path d="M595.5,249.9c-3.2,2.5-6.3,4.3-9.3,5.6s-6.3,1.9-10,1.9c-3.4,0-6.4-0.7-8.9-2c-2.6-1.3-4.5-3.2-5.9-5.4
			c-1.4-2.3-2.1-4.8-2.1-7.5c0-3.6,1.1-6.7,3.4-9.2c2.3-2.5,5.4-4.3,9.4-5.1c0.8-0.2,2.9-0.6,6.2-1.3c3.3-0.7,6.2-1.3,8.5-1.9
			c2.4-0.6,4.9-1.3,7.7-2.1c-0.2-3.5-0.9-6-2.1-7.7c-1.2-1.6-3.8-2.4-7.7-2.4c-3.4,0-5.9,0.5-7.6,1.4c-1.7,0.9-3.1,2.3-4.4,4.2
			c-1.2,1.9-2.1,3.1-2.6,3.7c-0.5,0.6-1.6,0.9-3.2,0.9c-1.5,0-2.8-0.5-3.8-1.4c-1.1-1-1.6-2.2-1.6-3.7c0-2.3,0.8-4.6,2.5-6.8
			c1.6-2.2,4.2-4,7.7-5.4c3.5-1.4,7.8-2.1,13-2.1c5.8,0,10.4,0.7,13.7,2.1c3.3,1.4,5.7,3.5,7,6.5c1.4,3,2.1,6.9,2.1,11.8
			c0,3.1,0,5.7,0,7.9c0,2.2,0,4.6-0.1,7.2c0,2.5,0.4,5.1,1.2,7.8c0.8,2.7,1.2,4.4,1.2,5.2c0,1.4-0.6,2.6-1.9,3.7
			c-1.3,1.1-2.7,1.7-4.3,1.7c-1.4,0-2.7-0.6-4-1.9C598.4,254.1,597,252.3,595.5,249.9z M594.6,230.7c-1.9,0.7-4.8,1.5-8.4,2.3
			c-3.7,0.8-6.3,1.4-7.7,1.7c-1.4,0.4-2.8,1.1-4.1,2.2c-1.3,1.1-1.9,2.6-1.9,4.5c0,2,0.8,3.7,2.3,5.1c1.5,1.4,3.5,2.1,6,2.1
			c2.6,0,5-0.6,7.2-1.7c2.2-1.1,3.8-2.6,4.9-4.4c1.2-2,1.8-5.3,1.8-9.9V230.7z"/>
		<path d="M621,249.3V192c0-2.6,0.6-4.6,1.8-6s2.8-2,4.8-2c2,0,3.6,0.7,4.8,2c1.2,1.3,1.8,3.3,1.8,6v57.3c0,2.7-0.6,4.7-1.9,6
			s-2.8,2-4.8,2c-1.9,0-3.5-0.7-4.7-2.1S621,251.9,621,249.3z"/>
	</g>
	<path d="M329.1,237.5H27.9c-4.9,0-8.9-4-8.9-8.9v0c0-4.9,4-8.9,8.9-8.9h301.2c4.9,0,8.9,4,8.9,8.9v0
		C337.9,233.6,334,237.5,329.1,237.5z"/>
	<path d="M977.1,237.5H664.9c-4.9,0-8.9-4-8.9-8.9v0c0-4.9,4-8.9,8.9-8.9h312.3c4.9,0,8.9,4,8.9,8.9v0
		C986,233.6,982,237.5,977.1,237.5z"/>
</g>
<g>
	<text transform="matrix(1 0 0 1 -980.3525 176.5723)" style="font-family:'ArialRoundedMTBold'; font-size:193.1669px;">SEXSHOP</text>
	<text transform="matrix(1 0 0 1 -656.8818 257.2969)" style="font-family:'ArialRoundedMTBold'; font-size:98.1484px;">Portal</text>
	<path d="M-665.8,238.9h-310.8c-1.4,0-2.5-1.1-2.5-2.5v-12.5c0-1.4,1.1-2.5,2.5-2.5h310.8c1.4,0,2.5,1.1,2.5,2.5v12.5
		C-663.3,237.8-664.4,238.9-665.8,238.9z"/>
	<path d="M-51.7,238.9h-310.8c-1.4,0-2.5-1.1-2.5-2.5v-12.5c0-1.4,1.1-2.5,2.5-2.5h310.8c1.4,0,2.5,1.1,2.5,2.5v12.5
		C-49.2,237.8-50.3,238.9-51.7,238.9z"/>
</g>
<g>
	<text transform="matrix(1 0 0 1 -980.3821 508.4044)" style="font-family:'ArialRoundedMTBold'; font-size:193.1669px;">SEXSHOP</text>
	<text transform="matrix(1 0 0 1 -656.9114 589.1291)" style="font-family:'ArialRoundedMTBold'; font-size:98.1484px;">Portal</text>
	<path d="M-665.8,570.7h-310.8c-1.4,0-2.5-1.1-2.5-2.5v-12.5c0-1.4,1.1-2.5,2.5-2.5h310.8c1.4,0,2.5,1.1,2.5,2.5v12.5
		C-663.3,569.6-664.4,570.7-665.8,570.7z"/>
	<path d="M-51.7,570.7h-310.8c-1.4,0-2.5-1.1-2.5-2.5v-12.5c0-1.4,1.1-2.5,2.5-2.5h310.8c1.4,0,2.5,1.1,2.5,2.5v12.5
		C-49.2,569.6-50.3,570.7-51.7,570.7z"/>
	<path d="M-498,390c0,0,6.5-4.3,10-9c3-4,4.8-7,6-13c1-5,0-16,0-16s-18-3-26,4c-6.4,5.6-10,14-11,16"/>
	<path d="M-581.3,389.9c0,0-6.5-4.3-10-9c-3-4-4.8-7-6-13c-1-5,0-16,0-16s18-3,26,4c6.4,5.6,10,14,11,16"/>
</g>
</svg>
